<?xml version="1.0" standalone="no"?>
<!DOCTYPE svg PUBLIC "-//W3C//DTD SVG 20010904//EN"
 "http://www.w3.org/TR/2001/REC-SVG-20010904/DTD/svg10.dtd">
<svg version="1.0" xmlns="http://www.w3.org/2000/svg"
 width="64.000000pt" height="64.000000pt" viewBox="0 0 64.000000 64.000000"
 preserveAspectRatio="xMidYMid meet">

<g transform="translate(0.000000,64.000000) scale(0.100000,-0.100000)"
fill="#000000" stroke="none">
<path d="M247 568 c-21 -11 -36 -22 -34 -25 3 -2 27 7 54 21 26 14 41 25 33
24 -8 0 -32 -10 -53 -20z"/>
<path d="M390 569 c0 -5 5 -7 10 -4 6 3 10 8 10 11 0 2 -4 4 -10 4 -5 0 -10
-5 -10 -11z"/>
<path d="M151 538 c-19 -18 -23 -19 -18 -5 10 28 1 20 -36 -30 -47 -65 -84
-197 -64 -231 5 -6 6 -16 2 -22 -15 -24 56 -137 78 -123 6 3 7 2 4 -4 -13 -20
92 -99 118 -89 10 4 14 2 9 -5 -5 -8 19 -10 86 -6 90 6 117 17 103 41 -4 5 1
7 10 3 10 -3 17 -2 17 3 0 5 9 12 20 15 33 10 80 55 101 96 l19 39 -72 -26
c-94 -34 -138 -57 -162 -83 l-19 -21 -34 26 c-43 33 -161 86 -173 79 -6 -4
-10 -1 -10 4 0 6 -6 11 -13 11 -7 0 -22 7 -33 15 -14 11 -15 14 -2 9 14 -5 15
-1 7 33 -20 89 0 177 61 253 36 45 36 51 1 18z m-45 -62 c-35 -51 -53 -137
-39 -187 6 -21 7 -39 3 -39 -4 0 -10 10 -14 23 -16 61 4 160 44 217 31 43 37
31 6 -14z m116 -397 c23 -16 39 -29 33 -29 -18 0 -92 54 -116 85 -48 59 -50
69 -6 21 25 -26 65 -61 89 -77z m48 2 c19 -12 31 -21 27 -21 -26 0 -122 71
-138 103 -7 14 6 6 32 -20 24 -22 60 -50 79 -62z"/>
<path d="M335 549 c-11 -17 1 -21 15 -4 8 9 8 15 2 15 -6 0 -14 -5 -17 -11z"/>
<path d="M457 503 c-3 -5 0 -19 8 -29 15 -20 18 -11 6 20 -4 11 -10 15 -14 9z"/>
<path d="M371 479 c-11 -11 -21 -14 -23 -8 -2 7 -9 5 -17 -5 -12 -14 -12 -16
4 -10 10 4 16 3 13 -2 -4 -5 12 -10 33 -12 22 -1 39 2 39 8 0 5 -9 10 -20 10
-30 0 -24 18 8 22 25 3 25 4 5 9 -14 5 -28 0 -42 -12z"/>
<path d="M264 468 l-19 -22 28 17 c15 10 33 15 39 11 7 -4 8 -3 4 4 -11 18
-31 14 -52 -10z"/>
<path d="M487 419 c7 -7 15 -10 18 -7 3 3 -2 9 -12 12 -14 6 -15 5 -6 -5z"/>
<path d="M420 416 c0 -6 10 -25 23 -43 15 -23 27 -31 40 -27 24 8 21 -9 -8
-44 -36 -43 -31 -53 15 -31 48 23 56 24 64 2 7 -16 -8 -33 -31 -33 -6 0 -15
-5 -18 -11 -4 -5 9 -3 29 5 20 8 38 11 41 6 3 -4 -7 -11 -21 -14 -15 -4 -24
-9 -21 -12 3 -3 20 1 39 9 29 12 36 21 41 53 11 63 8 101 -8 114 -13 11 -15 7
-16 -26 l0 -39 -19 43 c-11 24 -26 42 -35 42 -9 0 -13 -5 -10 -11 8 -12 -23
-38 -47 -39 -9 0 -25 15 -37 33 -11 17 -21 28 -21 23z"/>
<path d="M111 344 c-1 -66 5 -80 26 -63 9 9 21 8 44 -2 33 -13 126 -83 145
-108 10 -12 17 -9 49 22 21 20 42 37 47 37 5 0 8 21 6 47 -3 43 -5 47 -40 59
-37 13 -38 12 -38 -12 0 -13 5 -24 10 -24 7 0 7 -7 0 -21 -11 -20 -37 -21 -33
0 2 6 -4 11 -13 11 -8 0 -12 -4 -9 -10 3 -6 -1 -7 -9 -4 -21 8 -10 24 15 24
14 0 19 7 19 24 0 24 -2 24 -32 14 -18 -6 -41 -17 -50 -25 -9 -8 -22 -12 -27
-8 -6 3 -11 1 -11 -4 0 -6 8 -11 18 -12 11 0 12 -2 4 -6 -7 -3 -33 1 -58 8
-46 14 -49 19 -57 84 -2 17 -5 3 -6 -31z m252 -114 c-3 -11 -10 -20 -17 -20
-6 0 -6 -4 3 -9 9 -6 10 -11 2 -15 -18 -12 -31 4 -29 35 2 23 7 29 24 29 17 0
21 -4 17 -20z"/>
<path d="M140 242 c0 -4 21 -15 48 -24 26 -9 56 -24 67 -33 19 -15 18 -15 -10
-2 -16 8 -41 17 -55 21 -14 3 -1 -5 29 -19 29 -14 58 -22 64 -18 5 3 7 2 4 -4
-3 -5 7 -20 24 -32 27 -20 32 -21 47 -8 9 9 37 27 62 42 25 15 36 24 25 20
-11 -4 -28 -8 -37 -9 -10 -1 -26 -10 -36 -19 -24 -22 -35 -21 -56 2 -15 17
-154 91 -170 91 -3 0 -6 -3 -6 -8z"/>
<path d="M447 214 c-16 -9 -27 -18 -24 -20 7 -8 57 15 57 26 0 12 1 13 -33 -6z"/>
</g>
</svg>
